#N canvas 852 138 1019 823 10;
#X obj 109 228 netsend;
#X msg 74 92 connect localhost 3000;
#X msg 109 127 disconnect;
#X msg 163 203 send \$1;
#X floatatom 163 170 5 0 0 0 - - -;
#X obj 115 420 print;
#X floatatom 166 422 5 0 0 0 - - -;
#X obj 202 405 tgl 15 0 empty empty empty 17 7 0 10 -262144 -1 -1 0
1;
#X obj 109 262 tgl 15 0 empty empty empty 17 7 0 10 -262144 -1 -1 0
1;
#X text 130 260 X indica que estamos conectados;
#X text 75 66 Aquí envío;
#X text 184 128 3 desconectar al final;
#X obj 115 372 netreceive 3000;
#X text 219 90 1 presionar primero para conectar;
#X text 203 169 2 deslizar para enviar números. Revisar ventana de
Pd;
#X text 113 339 Aquí recibo;
#X text 74 17 Patch para enviar y recibir datos dentro de Pure Data
;
#X connect 0 0 8 0;
#X connect 1 0 0 0;
#X connect 2 0 0 0;
#X connect 3 0 0 0;
#X connect 4 0 3 0;
#X connect 12 0 5 0;
#X connect 12 0 6 0;
#X connect 12 1 7 0;
