#N canvas 336 343 843 680 10;
#X obj 113 127 netreceive -u -b;
#X msg 113 93 listen 3000;
#X obj 113 165 oscparse;
#X obj 113 202 list trim;
#X obj 113 236 route chat;
#X floatatom 113 312 5 0 0 0 - - -;
#X obj 150 281 print;
#X text 102 44 Patch para recibir datos de SuperCollider;
#X text 206 92 1 presionar para recibir datos por el puerto 3000;
#X text 194 280 <- Print imprime los valores recibidos en la ventana
de Pd;
#X text 149 313 <- Esta caja númerica recibe los valores recibidos
;
#X connect 0 0 2 0;
#X connect 1 0 0 0;
#X connect 2 0 3 0;
#X connect 3 0 4 0;
#X connect 4 0 5 0;
#X connect 4 0 6 0;
