#N canvas 878 322 1013 658 10;
#X obj 73 102 oscformat /chat;
#X floatatom 73 73 5 0 0 0 - - -;
#X obj 73 135 list prepend send;
#X obj 73 168 list trim;
#X obj 175 306 netsend -u -b;
#X obj 175 345 tgl 15 0 empty empty empty 17 7 0 10 -262144 -1 -1 0
1;
#X msg 205 268 disconnect;
#X msg 175 209 connect localhost 57120;
#X text 65 35 Patch para enviar datos a SuperCollider;
#X text 328 207 1 Presionar mensaje para conectarme a SuperCollider
;
#X text 330 236 2 Ir a SuperCollider y declarar el OSCdef;
#X text 275 268 3 Al finalizar presionar para desconectarme;
#X text 197 343 <- Este toggle indica que estamos conectados cuando
hay X;
#X text 109 72 <- Mover esta caja numérica para enviar valores;
#X connect 0 0 2 0;
#X connect 1 0 0 0;
#X connect 2 0 3 0;
#X connect 3 0 4 0;
#X connect 4 0 5 0;
#X connect 6 0 4 0;
#X connect 7 0 4 0;
