#N canvas 564 173 1032 904 10;
#X obj 228 203 adc~;
#X obj 417 321 dac~;
#X obj 424 259 *~;
#X floatatom 552 182 5 0 1 0 - - -;
#X obj 230 344 vu 15 200 empty empty -1 -8 0 10 -66577 -1 1 0;
#X obj 229 284 env~;
#X obj 229 311 - 100;
#X obj 590 340 writesf~;
#X msg 590 262 open voz.wav;
#X msg 600 290 start;
#X msg 622 315 stop;
#X msg 392 100 open voz.wav;
#X msg 418 126 start;
#X msg 451 160 stop;
#X obj 423 210 readsf~;
#X text 591 180 volumen;
#X text 595 234 grabar voz;
#X text 685 261 1 genera archivo;
#X text 644 285 2 comienza a grabar;
#X text 664 316 3 para de grabar;
#X text 386 72 reproducir voz;
#X text 120 352 mide entrada;
#X text 72 205 entrada de voz;
#X text 291 194 desconectar cable;
#X text 291 209 después de grabar;
#X connect 0 0 5 0;
#X connect 0 0 2 0;
#X connect 2 0 1 0;
#X connect 2 0 1 1;
#X connect 2 0 7 0;
#X connect 3 0 2 1;
#X connect 5 0 6 0;
#X connect 6 0 4 0;
#X connect 8 0 7 0;
#X connect 9 0 7 0;
#X connect 10 0 7 0;
#X connect 11 0 14 0;
#X connect 12 0 14 0;
#X connect 13 0 14 0;
#X connect 14 0 2 0;
