#N canvas 980 408 694 300 10;
#X obj 156 31 tgl 15 0 empty empty empty 17 7 0 10 -262144 -1 -1 1
1;
#X floatatom 156 168 5 0 0 0 - - -;
#X floatatom 156 257 5 0 0 0 - - -;
#X obj 156 65 metro 500;
#X text 135 5 números random entre 0 y 1;
#X obj 156 96 random 100;
#X obj 156 218 / 100;
#X text 241 96 entre más incrementas el valor \, más preciso el resultado
;
#X text 210 215 comment;
#X connect 0 0 3 0;
#X connect 1 0 6 0;
#X connect 3 0 5 0;
#X connect 5 0 1 0;
#X connect 6 0 2 0;
