#N canvas 262 216 1619 855 10;
#N canvas 0 50 450 250 (subpatch) 0;
#X array muestra 194987 float 0;
#X coords 0 1 194986 -1 200 140 1;
#X restore 964 111 graph;
#X obj 689 254 soundfiler;
#X msg 689 220 read -resize \$1 muestra;
#X floatatom 689 290 7 0 0 0 - - -;
#X obj 689 179 openpanel;
#X obj 689 134 bng 15 250 50 0 empty empty empty 17 7 0 10 -262144
-1 -1;
#X obj 364 351 *~;
#X obj 361 408 dac~;
#X floatatom 487 321 5 0 1 0 - - -;
#X obj 364 301 tabread4~ muestra;
#X obj 365 254 line~;
#X obj 655 331 expr $f1 / 44100;
#X floatatom 655 375 7 0 0 0 - - -;
#X text 745 289 fin de sampleo;
#X msg 388 223 0 \, 194987 4421;
#X text 468 195 reversa;
#X msg 355 163 0 \, 194987 4421;
#X obj 655 432 / 2;
#X floatatom 655 475 7 0 0 0 - - -;
#X obj 792 438 * 2;
#X floatatom 792 466 7 0 0 0 - - -;
#X text 525 320 volumen;
#X obj 446 479 vu 25 120 empty empty -1 -8 0 10 -66577 -1 1 0;
#X obj 445 427 env~;
#X obj 445 452 - 100;
#X obj 199 457 writesf~;
#X msg 147 355 open mix1.wav;
#X msg 185 386 start;
#X msg 206 409 stop;
#X msg 209 183 open mix1.wav;
#X msg 223 209 start;
#X msg 230 237 stop;
#X obj 223 285 readsf~;
#X msg 365 195 194987 \, 0 38842;
#X text 352 136 presionar para tocar;
#X text 710 374 tiempo del sampleo en segundos;
#X text 847 464 tiempo del sampleo multiplicado por dos;
#X text 694 99 presionar para abrir sonidos;
#X text 88 323 esta seccion es para grabar;
#X text 119 158 esta seccion es para reproducir;
#X connect 1 0 3 0;
#X connect 1 0 11 0;
#X connect 2 0 1 0;
#X connect 4 0 2 0;
#X connect 5 0 4 0;
#X connect 6 0 7 0;
#X connect 6 0 7 1;
#X connect 6 0 23 0;
#X connect 6 0 25 0;
#X connect 8 0 6 1;
#X connect 9 0 6 0;
#X connect 10 0 9 0;
#X connect 11 0 12 0;
#X connect 12 0 17 0;
#X connect 12 0 19 0;
#X connect 14 0 10 0;
#X connect 16 0 10 0;
#X connect 17 0 18 0;
#X connect 19 0 20 0;
#X connect 23 0 24 0;
#X connect 24 0 22 0;
#X connect 26 0 25 0;
#X connect 27 0 25 0;
#X connect 28 0 25 0;
#X connect 29 0 32 0;
#X connect 30 0 32 0;
#X connect 31 0 32 0;
#X connect 32 0 6 0;
#X connect 33 0 10 0;
