#N canvas 0 87 1920 993 10;
#X obj 234 104 tabplay~ muestra;
#X obj 229 62 bng 15 250 50 0 empty empty empty 17 7 0 10 -262144 -1
-1;
#N canvas 0 50 450 250 (subpatch) 0;
#X array muestra 194987 float 0;
#X coords 0 1 194986 -1 200 140 1;
#X restore 576 84 graph;
#X obj 364 148 soundfiler;
#X msg 367 114 read -resize \$1 muestra;
#X floatatom 365 184 7 0 0 0 - - -;
#X obj 364 73 openpanel;
#X obj 358 28 bng 15 250 50 0 empty empty empty 17 7 0 10 -262144 -1
-1;
#X obj 35 249 *~;
#X obj 36 302 dac~;
#X floatatom 85 224 5 0 1 0 - - -;
#X obj 31 179 tabread4~ muestra;
#X obj 31 156 line~;
#X obj 333 225 expr $f1 / 44100;
#X floatatom 343 269 7 0 0 0 - - -;
#X text 388 268 tiempo del sampleo;
#X text 421 183 fin de sampleo;
#X msg 54 125 0 \, 194987 4421;
#X text 29 33 presionar;
#X msg 31 97 194987 \, 0 4421;
#X text 130 95 reversa;
#X msg 21 65 0 \, 194987 4421;
#X obj 351 326 / 2;
#X floatatom 302 369 7 0 0 0 - - -;
#X obj 397 343 * 2;
#X floatatom 398 371 7 0 0 0 - - -;
#X connect 1 0 0 0;
#X connect 3 0 5 0;
#X connect 3 0 13 0;
#X connect 4 0 3 0;
#X connect 6 0 4 0;
#X connect 7 0 6 0;
#X connect 8 0 9 0;
#X connect 8 0 9 1;
#X connect 10 0 8 1;
#X connect 11 0 8 0;
#X connect 12 0 11 0;
#X connect 13 0 14 0;
#X connect 14 0 22 0;
#X connect 14 0 24 0;
#X connect 17 0 12 0;
#X connect 19 0 12 0;
#X connect 21 0 12 0;
#X connect 22 0 23 0;
#X connect 24 0 25 0;
