#N canvas 138 180 1702 879 10;
#X obj 113 127 netreceive -u -b;
#X msg 113 93 listen 3000;
#X obj 113 165 oscparse;
#X obj 113 202 list trim;
#X floatatom 113 312 5 0 0 0 - - -;
#X obj 150 281 print;
#X text 102 44 Patch para recibir datos de SuperCollider;
#X text 206 92 1 presionar para recibir datos por el puerto 3000;
#X text 194 280 <- Print imprime los valores recibidos en la ventana
de Pd;
#X text 149 313 <- Esta caja númerica recibe los valores recibidos
;
#X obj 113 236 route frec amp;
#X floatatom 275 265 5 0 0 0 - - -;
#X obj 641 119 osc~;
#X obj 651 157 *~;
#X obj 648 209 dac~;
#X floatatom 641 81 5 0 0 0 - - -;
#X floatatom 722 131 5 0 0 0 - - -;
#X connect 0 0 2 0;
#X connect 1 0 0 0;
#X connect 2 0 3 0;
#X connect 3 0 10 0;
#X connect 4 0 15 0;
#X connect 10 0 4 0;
#X connect 10 0 5 0;
#X connect 10 1 11 0;
#X connect 11 0 16 0;
#X connect 12 0 13 0;
#X connect 13 0 14 0;
#X connect 13 0 14 1;
#X connect 15 0 12 0;
#X connect 16 0 13 1;
