#N canvas 579 141 863 732 10;
#X obj 170 125 osc~;
#X msg 226 68 440;
#X obj 169 179 *~;
#X msg 216 130 0;
#X msg 262 130 1;
#X obj 163 213 dac~;
#X floatatom 170 68 5 200 500 0 - - -;
#X obj 343 38 vsl 15 128 0 1 0 0 empty empty empty 0 -9 0 10 -262144
-1 -1 0 1;
#X text 170 36 Hola Mundo;
#X connect 0 0 2 0;
#X connect 1 0 0 0;
#X connect 2 0 5 0;
#X connect 2 0 5 1;
#X connect 3 0 2 1;
#X connect 4 0 2 1;
#X connect 6 0 0 0;
#X connect 7 0 2 1;
